<?xml version="1.0" encoding="UTF-8" standalone="no"?><!DOCTYPE svg PUBLIC "-//W3C//DTD SVG 1.1//EN" "http://www.w3.org/Graphics/SVG/1.1/DTD/svg11.dtd"><svg width="100%" height="100%" viewBox="0 0 154 24" version="1.1" xmlns="http://www.w3.org/2000/svg" xmlns:xlink="http://www.w3.org/1999/xlink" xml:space="preserve" xmlns:serif="http://www.serif.com/" style="fill-rule:evenodd;clip-rule:evenodd;stroke-linejoin:round;stroke-miterlimit:1.41421;"><path d="M105.009,19.309l-3.12,0l-1.68,-1.68l0,-10.293l2.64,-2.64c2.029,0 7.281,0 9.996,0l1.68,1.68l0,6.2l-0.96,0.96l-7.596,-0.003l0,4.816l-0.96,0.953l0,0.007Zm6.876,0l-3.12,0l0,-3.944l0.96,-0.96l4.8,0l0,2.212l-2.64,2.692Zm-63.405,0l-9.917,0l-1.68,-1.68l0,-10.293l2.64,-2.64l3.118,0l0.002,9.827l2.718,0l0.002,-8.867l0.96,-0.96l3.117,0l1.68,1.68l0,10.293l-2.64,2.64Zm-15.652,0l-9.918,0l-1.68,-1.68l0,-10.293l2.64,-2.64l3.118,0l0.002,9.827l8.478,0.009l0,2.137l-2.64,2.64Zm-15.712,0l-9.996,0l-1.68,-1.68l0,-10.293l2.64,-2.64c2.029,0 7.281,0 9.996,0l1.68,1.68c0,1.028 0,2.147 0,2.147l-0.96,0.942l0,0.018l-7.596,0l0,5.04l8.556,0l0,2.146l-2.64,2.64Zm47.185,0l-9.997,0l-1.68,-1.68l0,-2.142l0.96,-0.96l7.597,-0.002l0,-0.993l-8.557,0l0,-6.196l1.68,-1.68l0,0l0.96,-0.96c2.029,0 7.282,0 9.997,0l1.68,1.68c0,1.028 0,2.147 0,2.147l-0.96,0.96l-7.597,0.002l0,0.957l8.557,0l0,6.227l-0.96,0.96l0,0l-1.68,1.68Zm12.444,0l-3.12,0l-1.68,-1.68l0,-6.216l0.96,-0.96l6.48,0l0,6.216l-2.64,2.64Zm19.325,0l-9.996,0l-1.68,-1.68l0,-10.293l2.64,-2.64c2.029,0 7.281,0 9.996,0l1.68,1.68c0,1.028 0,2.147 0,2.147l-1.086,0.96l-7.47,0l0,0.959l5.841,0l0,2.13l-0.96,0.96l-4.881,0l0,0.991l8.556,0l0,2.146l-2.64,2.64Zm20.065,-7.896l0.96,-0.96l6.481,0l0,5.953l-2.64,2.903l-3.121,0l-1.68,-1.943l0,-5.953Zm21.411,7.896l-2.872,0l0,-1.178c-1.382,-0.123 -2.749,-0.431 -4.028,-0.977l-0.056,-0.024l-1.307,0.804l-2.03,-1.25l1.277,-0.786c-0.81,-0.666 -1.487,-1.522 -1.761,-2.534l-1.749,0l0,-1.768l0.96,-0.96l1.141,0c0.332,-0.616 0.809,-1.156 1.35,-1.61l-1.198,-0.78l0.94,-0.93l2.03,-1.25l1.227,0.755c0.949,-0.424 2.033,-0.741 3.204,-0.922l0,-0.248l0.013,0l0.947,-0.96l2.872,0l0,1.116c1.505,0.156 2.889,0.535 4.059,1.079l1.332,-0.82l2.03,1.25l-1.12,1.059c0.701,0.671 1.181,1.437 1.377,2.261l1.976,0l0,1.768l-0.96,0.962l-0.002,-0.002l-1.327,0c-0.228,0.624 -0.547,1.236 -1.053,1.681l1.109,0.679l-0.968,0.978l-0.015,-0.004l-2.007,1.236l-1.411,-0.868c-0.958,0.432 -1.978,0.728 -3.02,0.908l0,0.375l-0.96,0.93l0,0.03Zm-15.17,-7.656l-6.001,0l0,5.624l1.55,1.792l2.901,0l1.55,-1.792l0,-5.624Zm-44.191,0l-6,0l0,5.877l1.54,1.539l2.921,0l1.539,-1.539l0,-5.877Zm35.14,3.952l-4.32,0l0,3.464l2.778,0l1.542,-1.59l0,-1.874Zm-96.308,-9.709l-9.798,0l-1.539,1.54l0,10.094l1.539,1.539l9.798,0l1.539,-1.539l0,-1.807l-8.556,0l0,-6.48l8.556,0l0,-1.807l-1.539,-1.54Zm8.771,0l-2.778,0l-1.54,1.54l0,10.094l1.54,1.539l9.719,0l1.539,-1.539l0,-1.799l-8.478,-0.008l-0.002,-9.827Zm15.653,0l-2.779,0l-1.539,1.54l0,10.094l1.539,1.539l9.719,0l1.539,-1.539l0,-10.094l-1.539,-1.54l-2.778,0l-0.003,9.827l-4.157,0l-0.002,-9.827Zm54.53,0l-9.798,0l-1.539,1.54l0,10.094l1.539,1.539l9.798,0l1.539,-1.539l0,-1.807l-8.556,0l0,-2.431l5.841,0l0,-1.65l-5.841,0l0,-2.399l8.556,0l0,-1.807l-1.539,-1.54Zm-31.77,0l-9.797,0l-0.82,0.82l-0.72,0.72l0,5.856l8.557,0l0,2.432l-8.557,0.003l0,1.803l1.54,1.539l9.797,0l1.54,-1.539l0,-5.888l-8.557,0l0,-2.396l8.557,-0.003l0,-1.807l-1.54,-1.54Zm47.585,0l-9.798,0l-1.539,1.54l0,10.094l1.539,1.539l2.781,0l0,-5.777l8.556,0.004l0,-5.86l-1.539,-1.54Zm28.324,7.453c0.327,-0.363 0.421,-0.95 0.212,-1.53c-0.459,-1.279 -2.339,-2.021 -4.278,-2.122c-0.058,0 -0.058,0 -0.115,0c-2.792,0.201 -3.386,1.31 -3.433,1.781c-0.151,1.505 1.994,2.74 4.45,2.74c1.269,0 2.7,-0.357 3.164,-0.869Zm-31.101,-1.707l0,-2.398l-4.24,0.002l0,2.396l4.24,0Zm-3.04,-2.157l0,0.957l2.8,0l0,-0.958l-2.8,0.001Zm-24.048,0.012l-13.471,0l0,-2.161l2.64,-2.64l10.111,0l1.68,1.68c0,1.034 0,2.161 0,2.161l-0.96,0.96Zm40.606,-0.048l-6.392,0l0,-2.113l2.64,-2.64l4.801,-0.005l0,3.798l-1.049,0.96Zm-42.386,-3.553l-9.912,0l-1.539,1.54l0,1.821l12.991,0l0,-1.821l-1.54,-1.54Zm37.774,0l-1.54,1.54l0,1.773l6.001,0l0,-3.318c-1.487,0.002 -2.974,0.003 -4.461,0.005Z" style="fill:#141414;"/><path d="M73.625,19.309l3.12,0l-3.12,0Zm47.201,-0.24l-2.901,0l-1.55,-1.792l0,-5.624l6.001,0l0,5.624l-1.55,1.792Zm-44.18,0l-2.921,0l-1.54,-1.539l0,-5.877l6,0l0,5.877l-1.539,1.539Zm60.66,0l-2.392,0l0,-1.157l-0.288,-0.026c-1.392,-0.131 -2.761,-0.465 -4.055,-1.026l-1.288,0.792l-1.572,-0.968l1.175,-0.724l0.005,-0.076l-0.25,-0.205c-0.598,-0.5 -1.12,-1.098 -1.438,-1.808c-0.159,-0.355 -0.249,-0.743 -0.25,-0.747l-1.693,0l0,-1.288l1.676,0l0.056,-0.226c0.27,-1.047 1.011,-1.878 1.84,-2.574l-0.005,-0.072l-1.116,-0.688l1.572,-0.968l1.208,0.743l0.228,-0.1c1.335,-0.574 2.76,-0.86 4.195,-0.988l0,-1.072l2.392,0l0,1.092l0.284,0.03c1.394,0.155 2.76,0.518 4.031,1.105l1.316,-0.81l1.572,0.968l-1.259,0.776l0.236,0.276c0.559,0.497 1.039,1.085 1.324,1.77c0.148,0.356 0.225,0.734 0.226,0.738l1.924,0l0,1.288l-1.941,0l-0.059,0.219c-0.367,1.3 -1.768,2.53 -1.768,2.53l1.317,0.811l-1.572,0.968l-1.394,-0.858l-0.223,0.101c-1.269,0.556 -2.629,0.85 -4.014,0.997l0,1.177Zm-25.523,0l-2.778,0l0,-3.464l4.32,0l0,1.874l-1.542,1.59Zm-94.766,0l-9.798,0l-1.539,-1.539l0,-10.094l1.539,-1.54l9.798,0l1.539,1.54l0,1.807l-8.556,0l0,6.48l8.556,0l0,1.807l-1.539,1.539Zm15.712,0l-9.719,0l-1.54,-1.539l0,-10.094l1.54,-1.54l2.778,0l0.002,9.827l8.478,0.008l0,1.799l-1.539,1.539Zm63.242,0l-9.798,0l-1.539,-1.539l0,-10.094l1.539,-1.54l9.798,0l1.539,1.54l0,1.807l-8.556,0l0,2.399l5.841,0l0,1.65l-5.841,0l0,2.431l8.556,0l0,1.807l-1.539,1.539Zm-47.59,0l-9.719,0l-1.539,-1.539l0,-10.094l1.539,-1.54l2.779,0l0.002,9.827l4.157,0l0.003,-9.827l2.778,0l1.539,1.54l0,10.094l-1.539,1.539Zm15.82,0l-9.797,0l-1.54,-1.539l0,-1.803l8.557,-0.003l0,-2.432l-8.557,0l0,-5.856l1.54,-1.54l9.797,0l1.54,1.54l0,1.807l-8.557,0.003l0,2.396l8.557,0l0,5.888l-1.54,1.539Zm40.568,0l-2.781,0l-1.539,-1.539l0,-10.094l1.539,-1.54l9.798,0l1.539,1.54l0,5.86l-8.556,-0.004l0,5.777Zm-26.344,-7.656l0,6.216l0,-6.216Zm57.621,-1.956c1.937,0.023 4.116,0.812 4.562,2.467c0.422,1.564 -1.373,3.006 -3.254,3.366c-2.459,0.472 -5.8,-0.251 -6.048,-2.652c-0.191,-1.852 2.367,-3.19 4.74,-3.181Zm-27.037,2.185l0,-2.398l-4.24,0.002l0,2.396l4.24,0Zm-40.559,-4.306l1.68,-1.68l-1.68,1.68c0,1.034 0,2.161 0,2.161l0,-2.161Zm13.231,1.921l-12.991,0l0,-1.821l1.539,-1.54l9.912,0l1.54,1.54l0,1.821Zm36.234,-3.361l-1.54,1.54l0,1.773l6.001,0l0,-3.318c-1.487,0.002 -2.974,0.003 -4.461,0.005Z" style="fill:#d58b36;"/></svg>