<?xml version="1.0" encoding="UTF-8" standalone="no"?>
<!DOCTYPE svg PUBLIC "-//W3C//DTD SVG 1.1//EN"
 "http://www.w3.org/Graphics/SVG/1.1/DTD/svg11.dtd">
<!-- Generated by graphviz version 2.42.3 (0)
 -->
<!-- Title: Client Connection Flow Pages: 1 -->
<svg width="371pt" height="496pt"
 viewBox="0.00 0.00 371.00 496.00" xmlns="http://www.w3.org/2000/svg" xmlns:xlink="http://www.w3.org/1999/xlink">
<g id="graph0" class="graph" transform="scale(1 1) rotate(0) translate(4 492)">
<title>Client Connection Flow</title>
<polygon fill="white" stroke="transparent" points="-4,4 -4,-492 367,-492 367,4 -4,4"/>
<!-- start -->
<g id="node1" class="node">
<title>start</title>
<polygon fill="none" stroke="black" points="135,-384 81,-384 81,-348 135,-348 135,-384"/>
<text text-anchor="middle" x="108" y="-362.3" font-family="Times,serif" font-size="14.00">Start</text>
</g>
<!-- wait_hello -->
<g id="node2" class="node">
<title>wait_hello</title>
<polygon fill="none" stroke="black" points="164.5,-297 51.5,-297 51.5,-261 164.5,-261 164.5,-297"/>
<text text-anchor="middle" x="108" y="-275.3" font-family="Times,serif" font-size="14.00">Wait for hello</text>
</g>
<!-- start&#45;&gt;wait_hello -->
<g id="edge2" class="edge">
<title>start&#45;&gt;wait_hello</title>
<path fill="none" stroke="black" d="M108,-347.8C108,-336.16 108,-320.55 108,-307.24"/>
<polygon fill="black" stroke="black" points="111.5,-307.18 108,-297.18 104.5,-307.18 111.5,-307.18"/>
<text text-anchor="middle" x="187.5" y="-318.8" font-family="Times,serif" font-size="14.00">Connect to /api/socket</text>
</g>
<!-- new_session -->
<g id="node3" class="node">
<title>new_session</title>
<polygon fill="none" stroke="black" points="161,-210 55,-210 55,-174 161,-174 161,-210"/>
<text text-anchor="middle" x="108" y="-188.3" font-family="Times,serif" font-size="14.00">New session</text>
</g>
<!-- wait_hello&#45;&gt;new_session -->
<g id="edge3" class="edge">
<title>wait_hello&#45;&gt;new_session</title>
<path fill="none" stroke="black" d="M108,-260.8C108,-249.16 108,-233.55 108,-220.24"/>
<polygon fill="black" stroke="black" points="111.5,-220.18 108,-210.18 104.5,-220.18 111.5,-220.18"/>
<text text-anchor="middle" x="155.5" y="-231.8" font-family="Times,serif" font-size="14.00">Receive hello</text>
</g>
<!-- wait_ready -->
<g id="node4" class="node">
<title>wait_ready</title>
<polygon fill="none" stroke="black" points="167.5,-123 48.5,-123 48.5,-87 167.5,-87 167.5,-123"/>
<text text-anchor="middle" x="108" y="-101.3" font-family="Times,serif" font-size="14.00">Wait for ready</text>
</g>
<!-- new_session&#45;&gt;wait_ready -->
<g id="edge4" class="edge">
<title>new_session&#45;&gt;wait_ready</title>
<path fill="none" stroke="black" d="M108,-173.8C108,-162.16 108,-146.55 108,-133.24"/>
<polygon fill="black" stroke="black" points="111.5,-133.18 108,-123.18 104.5,-133.18 111.5,-133.18"/>
<text text-anchor="middle" x="164" y="-144.8" font-family="Times,serif" font-size="14.00">Send register_*</text>
</g>
<!-- connected -->
<g id="node5" class="node">
<title>connected</title>
<polygon fill="none" stroke="black" points="92,-36 0,-36 0,0 92,0 92,-36"/>
<text text-anchor="middle" x="46" y="-14.3" font-family="Times,serif" font-size="14.00">Connected</text>
</g>
<!-- wait_ready&#45;&gt;connected -->
<g id="edge5" class="edge">
<title>wait_ready&#45;&gt;connected</title>
<path fill="none" stroke="black" d="M64.78,-86.86C57.71,-82.13 51.29,-76.25 47,-69 43.04,-62.32 41.73,-54.22 41.69,-46.49"/>
<polygon fill="black" stroke="black" points="45.19,-46.55 42.31,-36.36 38.21,-46.13 45.19,-46.55"/>
<text text-anchor="middle" x="97.5" y="-57.8" font-family="Times,serif" font-size="14.00">Receive ready</text>
</g>
<!-- abort -->
<g id="node6" class="node">
<title>abort</title>
<polygon fill="none" stroke="black" points="198,-36 142,-36 142,0 198,0 198,-36"/>
<text text-anchor="middle" x="170" y="-14.3" font-family="Times,serif" font-size="14.00">Abort</text>
</g>
<!-- wait_ready&#45;&gt;abort -->
<g id="edge6" class="edge">
<title>wait_ready&#45;&gt;abort</title>
<path fill="none" stroke="black" d="M131.28,-86.66C137.25,-81.45 143.3,-75.4 148,-69 153.19,-61.93 157.5,-53.45 160.88,-45.5"/>
<polygon fill="black" stroke="black" points="164.14,-46.78 164.56,-36.19 157.63,-44.21 164.14,-46.78"/>
<text text-anchor="middle" x="259.5" y="-57.8" font-family="Times,serif" font-size="14.00">Connection closed with 4003</text>
</g>
<!-- lost_connection -->
<g id="node7" class="node">
<title>lost_connection</title>
<polygon fill="none" stroke="black" stroke-dasharray="1,5" points="188.5,-488 27.5,-488 27.5,-435 188.5,-435 188.5,-488"/>
<text text-anchor="middle" x="108" y="-472.8" font-family="Times,serif" font-size="14.00">Connection lost or</text>
<text text-anchor="middle" x="108" y="-457.8" font-family="Times,serif" font-size="14.00">unexpectedly closed</text>
<text text-anchor="middle" x="108" y="-442.8" font-family="Times,serif" font-size="14.00">while connecting</text>
</g>
<!-- lost_connection&#45;&gt;start -->
<g id="edge1" class="edge">
<title>lost_connection&#45;&gt;start</title>
<path fill="none" stroke="black" d="M108,-434.95C108,-422.36 108,-407.17 108,-394.35"/>
<polygon fill="black" stroke="black" points="111.5,-394.24 108,-384.24 104.5,-394.24 111.5,-394.24"/>
<text text-anchor="middle" x="175.5" y="-405.8" font-family="Times,serif" font-size="14.00">Wait random delay</text>
</g>
</g>
</svg>
